<svg id="Camada_1" data-name="Camada 1" xmlns="http://www.w3.org/2000/svg" viewBox="0 0 356 59.65"><defs><style>.cls-1{fill:#fff;}.cls-2{fill:#8b00ff;}</style></defs><title>logo-cria</title><g id="Grupo_299" data-name="Grupo 299"><path id="Caminho_1" data-name="Caminho 1" class="cls-1" d="M29,29.9a5.7,5.7,0,0,0-2.07-1.77,6,6,0,0,0-2.87-.7,7.62,7.62,0,0,0-5.9,2.27,9.44,9.44,0,0,0,0,11.87A7.66,7.66,0,0,0,24,43.84a5.44,5.44,0,0,0,2.87-.73A9.07,9.07,0,0,0,29,41.37l6.6,6.94a12.67,12.67,0,0,1-5.5,3.37,21,21,0,0,1-6,1,20.54,20.54,0,0,1-7-1.2A16.87,16.87,0,0,1,11.24,48,16.13,16.13,0,0,1,7.4,42.64a18.2,18.2,0,0,1,0-14,16.13,16.13,0,0,1,3.84-5.37A16.87,16.87,0,0,1,17,19.82a20.27,20.27,0,0,1,13.07-.23A12.67,12.67,0,0,1,35.55,23Z"/><path id="Caminho_2" data-name="Caminho 2" class="cls-1" d="M40.82,19.42h10v5.2H51a12.43,12.43,0,0,1,3.8-4.5,9.69,9.69,0,0,1,5.54-1.5c.58,0,1.16,0,1.74.07a8.77,8.77,0,0,1,1.6.27V28.1a13.93,13.93,0,0,0-2.1-.5,13.22,13.22,0,0,0-2.17-.17,10.56,10.56,0,0,0-4.54.8,6.1,6.1,0,0,0-2.57,2.23A8.42,8.42,0,0,0,51.1,33.9a32.39,32.39,0,0,0-.27,4.4V51.85h-10Z"/><path id="Caminho_3" data-name="Caminho 3" class="cls-2" d="M69,12.82a5.8,5.8,0,1,1,1.7,4.1A5.57,5.57,0,0,1,69,12.82Z"/><path id="Caminho_4" data-name="Caminho 4" class="cls-1" d="M29,29.9a5.7,5.7,0,0,0-2.07-1.77,6,6,0,0,0-2.87-.7,7.62,7.62,0,0,0-5.9,2.27,9.44,9.44,0,0,0,0,11.87A7.66,7.66,0,0,0,24,43.84a5.44,5.44,0,0,0,2.87-.73A9.07,9.07,0,0,0,29,41.37l6.6,6.94a12.67,12.67,0,0,1-5.5,3.37,21,21,0,0,1-6,1,20.54,20.54,0,0,1-7-1.2A16.87,16.87,0,0,1,11.24,48,16.13,16.13,0,0,1,7.4,42.64a18.2,18.2,0,0,1,0-14,16.13,16.13,0,0,1,3.84-5.37A16.87,16.87,0,0,1,17,19.82a20.27,20.27,0,0,1,13.07-.23A12.67,12.67,0,0,1,35.55,23Z"/><rect id="Retângulo_2" data-name="Retângulo 2" class="cls-1" x="68.98" y="45.84" width="11.61" height="6"/><path id="Caminho_5" data-name="Caminho 5" class="cls-1" d="M111.9,19.82v2.73A15.1,15.1,0,0,0,102,18.62c-8.26,0-15,7.59-15,17.65,0,9.18,6.72,16.38,14.52,16.38a16.32,16.32,0,0,0,10.32-3.93v2.73h9.52V19.82ZM104,44.06a8.29,8.29,0,1,1,8-8.53c0,.07,0,.14,0,.2A8.2,8.2,0,0,1,104,44.06Z"/><g id="Grupo_1" data-name="Grupo 1"><path id="Caminho_6" data-name="Caminho 6" class="cls-1" d="M136.55,44.83a7.11,7.11,0,0,0,3,2.57,8.9,8.9,0,0,0,3.73.83,7.76,7.76,0,0,0,2.19-.34,6.52,6.52,0,0,0,2-1,5.5,5.5,0,0,0,1.5-1.65,4.35,4.35,0,0,0,.58-2.28,3.41,3.41,0,0,0-1.16-2.79,10.08,10.08,0,0,0-2.88-1.61c-1.15-.43-2.4-.85-3.75-1.25A15.12,15.12,0,0,1,138,35.63a9,9,0,0,1-2.88-2.88A9,9,0,0,1,134,27.86a8.42,8.42,0,0,1,2.5-5.8,10.36,10.36,0,0,1,3.33-2.17,12.24,12.24,0,0,1,4.89-.87,17,17,0,0,1,5,.71,8.54,8.54,0,0,1,4.15,2.9L150.3,25.8a5.82,5.82,0,0,0-2.28-2,7.21,7.21,0,0,0-3.35-.76,8.11,8.11,0,0,0-3,.47,5.5,5.5,0,0,0-1.9,1.21,4.25,4.25,0,0,0-1,1.58,4.69,4.69,0,0,0-.29,1.57,3.93,3.93,0,0,0,1.16,3.08,8.85,8.85,0,0,0,2.88,1.74,35.54,35.54,0,0,0,3.75,1.2,16.24,16.24,0,0,1,3.75,1.5A8.72,8.72,0,0,1,152.93,38a7.65,7.65,0,0,1,1.17,4.49,9.41,9.41,0,0,1-.88,4.11,9.17,9.17,0,0,1-2.34,3.08,10.42,10.42,0,0,1-3.48,1.92,13.36,13.36,0,0,1-4.29.67,15.53,15.53,0,0,1-5.76-1.07,9.46,9.46,0,0,1-4.34-3.3Z"/><path id="Caminho_7" data-name="Caminho 7" class="cls-1" d="M188.84,26.66A8.9,8.9,0,0,0,185.45,24,10.2,10.2,0,0,0,181.2,23a11.21,11.21,0,0,0-4.84,1,11,11,0,0,0-3.71,2.74,12.57,12.57,0,0,0-2.39,4.09,14.81,14.81,0,0,0-.85,5,13.87,13.87,0,0,0,.8,4.73,11.7,11.7,0,0,0,2.33,3.93,10.79,10.79,0,0,0,3.7,2.68,11.94,11.94,0,0,0,5,1A9.8,9.8,0,0,0,186,47.11,10.15,10.15,0,0,0,189.46,44l3.62,2.72a14,14,0,0,1-1.25,1.41,12.39,12.39,0,0,1-2.37,1.83,16,16,0,0,1-3.55,1.61,15,15,0,0,1-4.8.69,15.48,15.48,0,0,1-6.76-1.43,16.56,16.56,0,0,1-9.5-14.91,18.6,18.6,0,0,1,1.21-6.77,16.05,16.05,0,0,1,3.37-5.36,15.09,15.09,0,0,1,5.2-3.51,17.67,17.67,0,0,1,6.7-1.25,16.63,16.63,0,0,1,6.15,1.2,11.6,11.6,0,0,1,4.93,3.71Z"/><path id="Caminho_8" data-name="Caminho 8" class="cls-1" d="M204.64,19.82h4.29V33h16.39V19.82h4.29V51.45h-4.29V37H208.93V51.45h-4.29Z"/><path id="Caminho_9" data-name="Caminho 9" class="cls-1" d="M258.63,52.25A17.21,17.21,0,0,1,252,51a15.52,15.52,0,0,1-5.2-3.51,16.17,16.17,0,0,1-3.4-5.27,18.14,18.14,0,0,1,0-13.13,16,16,0,0,1,3.4-5.27,15.23,15.23,0,0,1,5.2-3.51,18,18,0,0,1,13.31,0,15.42,15.42,0,0,1,5.2,3.51,16.21,16.21,0,0,1,3.39,5.27,18.14,18.14,0,0,1,0,13.13,16.31,16.31,0,0,1-3.39,5.27,15.72,15.72,0,0,1-5.2,3.51A17.26,17.26,0,0,1,258.63,52.25Zm0-4a11.5,11.5,0,0,0,8.67-3.71,11.86,11.86,0,0,0,2.41-4,14.53,14.53,0,0,0,0-9.78,11.75,11.75,0,0,0-19.15-4.59c-.21.19-.4.39-.59.59a11.86,11.86,0,0,0-2.41,4,14.41,14.41,0,0,0,0,9.78,11.86,11.86,0,0,0,2.41,4,11.48,11.48,0,0,0,8.66,3.71Z"/><path id="Caminho_10" data-name="Caminho 10" class="cls-1" d="M302.17,52.25A17.3,17.3,0,0,1,295.51,51a15.58,15.58,0,0,1-5.19-3.51,16,16,0,0,1-3.4-5.27,18.14,18.14,0,0,1,0-13.13,15.81,15.81,0,0,1,3.4-5.27,15.28,15.28,0,0,1,5.19-3.51,18,18,0,0,1,13.32,0A15.28,15.28,0,0,1,314,23.8a16.07,16.07,0,0,1,3.4,5.27,18.14,18.14,0,0,1,0,13.13,16.17,16.17,0,0,1-3.4,5.27A15.58,15.58,0,0,1,308.83,51,17.3,17.3,0,0,1,302.17,52.25Zm0-4a11.5,11.5,0,0,0,8.67-3.71,12.19,12.19,0,0,0,2.41-4,14.53,14.53,0,0,0,0-9.78,12.19,12.19,0,0,0-2.41-4,11.84,11.84,0,0,0-16.74-.59c-.21.19-.4.39-.59.59a12,12,0,0,0-2.42,4,14.53,14.53,0,0,0,0,9.78,12,12,0,0,0,2.42,4,11.46,11.46,0,0,0,8.66,3.71Z"/><path id="Caminho_11" data-name="Caminho 11" class="cls-1" d="M331.2,19.82h4.28v27.6H350v4H331.2Z"/></g></g></svg>